<svg width="512" height="512" viewBox="0 0 512 512" fill="none" xmlns="http://www.w3.org/2000/svg">
<path d="M249.4 25.3699C261.9 12.8799 282.1 12.8799 294.6 25.3699C307.1 37.8699 307.1 58.1299 294.6 70.6299L269.3 95.0999H416C469 95.0999 512 138.1 512 191.1V223.1C512 241.7 497.7 255.1 480 255.1C462.3 255.1 448 241.7 448 223.1V191.1C448 174.3 433.7 159.1 416 159.1H269.3L294.6 185.4C307.1 197.9 307.1 218.1 294.6 230.6C282.1 243.1 261.9 243.1 249.4 230.6L169.4 150.6C156.9 138.1 156.9 117.9 169.4 105.4L249.4 25.3699ZM128 128C128 163.3 99.35 192 64 192C28.65 192 0 163.3 0 128C0 92.6499 28.65 63.9999 64 63.9999C99.35 63.9999 128 92.6499 128 128Z" fill="#6D7AFF"/>
<path opacity="0.4" d="M342.6 361.4C355.1 373.9 355.1 394.1 342.6 406.6L262.6 486.6C250.1 499.1 229.9 499.1 217.4 486.6C204.9 474.1 204.9 453.9 217.4 441.4L242.7 416H96C78.33 416 64 430.3 64 448V480C64 497.7 49.67 512 32 512C14.33 512 0 497.7 0 480V448C0 394.1 42.98 352 96 352H242.7L217.4 326.6C204.9 314.1 204.9 293.9 217.4 281.4C229.9 268.9 250.1 268.9 262.6 281.4L342.6 361.4ZM384 384C384 348.7 412.7 319.1 448 319.1C483.3 319.1 512 348.7 512 384C512 419.3 483.3 448 448 448C412.7 448 384 419.3 384 384Z" fill="#ACADB6"/>
</svg>
