<svg width="640" height="512" viewBox="0 0 640 512" fill="none" xmlns="http://www.w3.org/2000/svg">
<g clip-path="url(#clip0_749_23)">
<path d="M330.2 6.30004L353.8 54.1L406.1 61.6C415.4 63 419.3 74.5 412.5 81.4L374.5 118L383.5 170.1C384.9 179.4 375.3 186.6 366.7 182.3L320.1 157.9L273.2 182.7C264.6 187 254.9 179.8 256.4 170.5L265.4 118.4L227.4 81.4C220.6 74.6 224.5 63.1 233.8 61.6L286.1 54.1L309.8 6.30004C314.1 -2.29996 326.3 -1.99996 330.2 6.30004Z" fill="#6D7AFF"/>
<path opacity="0.4" d="M224 288C224 270.3 238.3 256 256 256H384C401.7 256 416 270.3 416 288V480C416 497.7 401.7 512 384 512H256C238.3 512 224 497.7 224 480V288ZM0 352C0 334.3 14.3 320 32 320H160C177.7 320 192 334.3 192 352V480C192 497.7 177.7 512 160 512H32C14.3 512 0 497.7 0 480V352ZM480 384H608C625.7 384 640 398.3 640 416V480C640 497.7 625.7 512 608 512H480C462.3 512 448 497.7 448 480V416C448 398.3 462.3 384 480 384Z" fill="#ACADB6"/>
</g>
<defs>
<clipPath id="clip0_749_23">
<rect width="640" height="512" fill="white"/>
</clipPath>
</defs>
</svg>
